# xmcd
#
# Track frame offsets:
#	150
#	4062
#	17087
#	28154
#	45492
#	57084
#	71308
#	87569
#	98153
#	111649
#	123819
#	138814
#
# Disc length: 2140 seconds
#
# Revision: 0
# Processed by: cddbd v1.5.2PL0 Copyright (c) Steve Scherf et al.
# Submitted via: audiograbber 1.83.01
#
DISCID=97085a0c
DTITLE=The See See - Fountanye Mountain
DYEAR=2012
DGENRE=Psychedelic Rock
TTITLE0=Waltz
TTITLE1=Open Up Your Door
TTITLE2=Automobile
TTITLE3=Sweet Hands
TTITLE4=Fix Me Up
TTITLE5=Painted Blue
TTITLE6=Sunbleached
TTITLE7=Big Wheels
TTITLE8=Gold and Honey
TTITLE9=Three More Days
TTITLE10=Fountayne Mountain
TTITLE11=The Day That Was the Day
EXTD=
EXTT0=
EXTT1=
EXTT2=
EXTT3=
EXTT4=
EXTT5=
EXTT6=
EXTT7=
EXTT8=
EXTT9=
EXTT10=
EXTT11=
PLAYORDER=
